# xmcd CD database file
#
# Track frame offsets:
#	150
#	9796
#	21571
#	37192
#	48843
#	64304
#	77152
#	93216
#	107376
#	119091
#	124751
#	138261
#	151500
#	165953
#	179060
#	192938
#	208065
#	223738
#	234533
#	243800
#
# Disc length: 3452 seconds
#
# Revision: 0
# Processed by: cddbd v1.5.2PL0 Copyright (c) Steve Scherf et al.
# Submitted via: CDex 1.79
#
DISCID=0c0d7a14
DTITLE=Various Artist - The Rat Pack 20 Favourites With
DYEAR=1900
DGENRE=Jazz
TTITLE0=Dean Martin - Everybody Loves Somebody
TTITLE1=Frank Sinatra - That Old Black Magic
TTITLE2=Sammy David - JR What King Of Fool Am I
TTITLE3=Dean Martin - Don't Let The Stars Get In Your Eyes
TTITLE4=Frank Sinatra - Nancy (With The Laughing Face)
TTITLE5=Sammy Davis Jr - Hey There
TTITLE6=Dean Martin - Some Enchanted Evening
TTITLE7=Frank Sinatra - If I Loved You
TTITLE8=Sammy Davis Jr - Laura
TTITLE9=Dean Martin - Baby, It's Cold Outside
TTITLE10=Frank Sinatra - Begin The Beguine
TTITLE11=Dean Martin - Walkin' My Baby Back Home
TTITLE12=Frank Sinatra - I'll Never Smile Again
TTITLE13=Sammy Davis Jr - You're Nobody 'Till Somebody Loves You
TTITLE14=Dean Martin - When You're Smiling
TTITLE15=Frank Sinatra - Embraceable You
TTITLE16=Sammy Davis Jr - Someone To Watch Over Me
TTITLE17=Dean Martin - Memories Are Made Of This
TTITLE18=Frank Sinatra - On The Sunny Side Of The Street
TTITLE19=Sammy Davis Jr - Birth Of The Blues
EXTD=
EXTT0=
EXTT1=
EXTT2=
EXTT3=
EXTT4=
EXTT5=
EXTT6=
EXTT7=
EXTT8=
EXTT9=
EXTT10=
EXTT11=
EXTT12=
EXTT13=
EXTT14=
EXTT15=
EXTT16=
EXTT17=
EXTT18=
EXTT19=
PLAYORDER=
